<svg width="168" height="50" fill="none" xmlns="http://www.w3.org/2000/svg"><rect x=".5" y=".5" width="167" height="49" rx="5.5" fill="#fff" stroke="#000"/><path d="M54.702 9.367a3.317 3.317 0 012.639 1.023 3.296 3.296 0 01.88 2.683c0 2.383-1.291 3.753-3.52 3.753H52V9.367h2.702zm-1.54 6.404h1.41a2.357 2.357 0 001.873-.756 2.344 2.344 0 00.593-1.926 2.344 2.344 0 00-.602-1.914 2.358 2.358 0 00-1.864-.754h-1.41v5.35zm6.371-1.761a2.661 2.661 0 011.58-2.693 2.68 2.68 0 013.62 1.597c.117.352.16.725.124 1.095a2.66 2.66 0 01-.681 2.05 2.675 2.675 0 01-3.064.647 2.675 2.675 0 01-1.456-1.6 2.661 2.661 0 01-.123-1.097zm4.178 0c0-1.22-.55-1.934-1.514-1.934-.968 0-1.513.713-1.513 1.933 0 1.23.545 1.938 1.513 1.938.965 0 1.514-.713 1.514-1.938zm8.223 2.816h-1.156l-1.167-4.146h-.088l-1.161 4.146h-1.145l-1.556-5.629h1.13l1.011 4.295h.083l1.16-4.295h1.07l1.16 4.295h.088l1.006-4.295h1.114l-1.55 5.629zm2.858-5.629h1.072v.894h.084a1.687 1.687 0 011.684-1.002 1.84 1.84 0 011.481.578 1.83 1.83 0 01.473 1.515v3.644h-1.114V13.46c0-.905-.394-1.354-1.218-1.354a1.297 1.297 0 00-1.288.877c-.06.177-.08.364-.06.55v3.292h-1.114v-5.629zM81.36 9h1.115v7.826H81.36V9zm2.663 5.01a2.658 2.658 0 01.684-2.048 2.674 2.674 0 011.979-.873 2.68 2.68 0 011.978.873 2.665 2.665 0 01.684 2.047 2.661 2.661 0 01-1.58 2.697 2.682 2.682 0 01-3.063-.646 2.666 2.666 0 01-.682-2.05zm4.178 0c0-1.22-.55-1.934-1.514-1.934-.968 0-1.513.713-1.513 1.933 0 1.23.545 1.938 1.513 1.938.965 0 1.514-.713 1.514-1.938zm2.319 1.224c0-1.013.757-1.597 2.1-1.68l1.529-.088v-.486c0-.594-.394-.93-1.156-.93-.622 0-1.052.228-1.176.625h-1.079c.114-.966 1.026-1.586 2.307-1.586 1.415 0 2.213.702 2.213 1.891v3.846h-1.072v-.791h-.089a1.896 1.896 0 01-1.695.884 1.712 1.712 0 01-1.316-.426 1.699 1.699 0 01-.566-1.259zm3.629-.48v-.471l-1.379.088c-.777.051-1.13.315-1.13.811 0 .507.441.802 1.047.802a1.334 1.334 0 001.321-.721c.081-.159.129-.332.14-.51zm2.573-.744c0-1.78.917-2.906 2.343-2.906a1.864 1.864 0 011.731.987h.083V9h1.114v7.826h-1.068v-.89h-.088a1.962 1.962 0 01-1.772.982c-1.436 0-2.343-1.126-2.343-2.909zm1.15 0c0 1.193.565 1.911 1.508 1.911.939 0 1.52-.728 1.52-1.907 0-1.173-.587-1.912-1.52-1.912-.937 0-1.508.723-1.508 1.907zm8.73 0a2.661 2.661 0 011.58-2.693 2.676 2.676 0 013.619 1.597c.117.352.16.725.124 1.095a2.656 2.656 0 01-1.578 2.697 2.68 2.68 0 01-3.622-1.6 2.65 2.65 0 01-.123-1.097zm4.178 0c0-1.22-.55-1.934-1.515-1.934-.968 0-1.513.713-1.513 1.933 0 1.23.545 1.938 1.513 1.938.965 0 1.515-.713 1.515-1.938zm2.64-2.813h1.073v.894h.083a1.685 1.685 0 011.684-1.002 1.84 1.84 0 011.891 1.282c.082.262.103.54.063.811v3.644H117.1V13.46c0-.905-.394-1.354-1.218-1.354a1.297 1.297 0 00-1.287.877c-.06.177-.081.364-.061.55v3.292h-1.114v-5.629zm11.088-1.401v1.427h1.223v.936h-1.223v2.894c0 .59.244.848.798.848.142 0 .284-.01.425-.026v.925c-.2.036-.403.055-.606.057-1.239 0-1.732-.434-1.732-1.52V12.16h-.896v-.936h.896V9.796h1.115zM127.253 9h1.104v3.102h.088a1.734 1.734 0 011.721-1.008 1.862 1.862 0 011.874 1.292c.083.26.107.536.07.806v3.634h-1.115v-3.36c0-.9-.42-1.354-1.207-1.354a1.32 1.32 0 00-1.348.863c-.065.18-.09.373-.073.564v3.287h-1.114V9zm11.352 6.306a2.296 2.296 0 01-2.445 1.628 2.566 2.566 0 01-2.52-1.808 2.543 2.543 0 01-.088-1.097 2.588 2.588 0 01.629-2.062 2.608 2.608 0 011.974-.878c1.57 0 2.518 1.07 2.518 2.837v.388h-3.986v.062a1.488 1.488 0 001.503 1.613 1.357 1.357 0 001.343-.683h1.072zm-3.918-1.814h2.851a1.353 1.353 0 00-.371-1.036 1.365 1.365 0 00-1.019-.422 1.45 1.45 0 00-1.039.422 1.449 1.449 0 00-.422 1.036zm-94.27 10.561a6.386 6.386 0 01.846-3.092 6.46 6.46 0 012.247-2.305 6.628 6.628 0 00-2.285-2.016 6.696 6.696 0 00-2.953-.789c-2.203-.229-4.34 1.306-5.462 1.306-1.145 0-2.874-1.283-4.736-1.245a7.023 7.023 0 00-3.406 1.007 6.938 6.938 0 00-2.463 2.539c-2.538 4.352-.645 10.749 1.786 14.267 1.217 1.723 2.638 3.647 4.498 3.58 1.82-.076 2.5-1.15 4.697-1.15 2.177 0 2.814 1.15 4.712 1.106 1.953-.032 3.184-1.73 4.357-3.47a14.195 14.195 0 001.993-4.02 6.262 6.262 0 01-2.784-2.288 6.174 6.174 0 01-1.047-3.43zm-3.584-10.516A6.295 6.295 0 0038.295 9c-1.627.17-3.13.94-4.209 2.157a6.013 6.013 0 00-1.19 2.037 5.973 5.973 0 00-.31 2.333 5.424 5.424 0 002.354-.511 5.373 5.373 0 001.893-1.479zm25.421 19.579H56.28l-1.434 4.196h-2.53l5.657-15.523h2.629l5.657 15.523h-2.573l-1.433-4.196zM56.9 31.18h4.734L59.3 24.37h-.065L56.9 31.18zm21.578.474c0 3.516-1.9 5.776-4.768 5.776a3.903 3.903 0 01-2.084-.478 3.855 3.855 0 01-1.51-1.502h-.054v5.605h-2.345v-15.06h2.27v1.882h.043a4.03 4.03 0 011.54-1.498 4.084 4.084 0 012.097-.503c2.9 0 4.811 2.27 4.811 5.777zm-2.41 0c0-2.292-1.195-3.798-3.02-3.798-1.791 0-2.996 1.538-2.996 3.797 0 2.28 1.205 3.808 2.997 3.808 1.823 0 3.019-1.495 3.019-3.807zm14.985 0c0 3.516-1.9 5.776-4.768 5.776a3.903 3.903 0 01-2.085-.478 3.855 3.855 0 01-1.51-1.502h-.054v5.605H80.29v-15.06h2.27v1.882h.043c.367-.628.9-1.146 1.54-1.498a4.083 4.083 0 012.097-.503c2.9 0 4.812 2.27 4.812 5.777zm-2.411 0c0-2.292-1.195-3.798-3.02-3.798-1.79 0-2.996 1.538-2.996 3.797 0 2.28 1.205 3.808 2.997 3.808 1.824 0 3.019-1.495 3.019-3.807zm10.72 1.332c.174 1.54 1.684 2.55 3.747 2.55 1.976 0 3.398-1.01 3.398-2.398 0-1.205-.857-1.926-2.888-2.42l-2.031-.485c-2.877-.689-4.213-2.022-4.213-4.185 0-2.678 2.356-4.518 5.7-4.518 3.313 0 5.583 1.84 5.659 4.518h-2.367c-.142-1.55-1.435-2.484-3.324-2.484-1.889 0-3.181.946-3.181 2.323 0 1.097.825 1.743 2.845 2.237l1.726.42c3.215.753 4.55 2.033 4.55 4.303 0 2.904-2.334 4.723-6.048 4.723-3.475 0-5.822-1.776-5.973-4.584h2.4zm14.684-9.67v2.678h2.173v1.84h-2.173v6.239c0 .97.435 1.42 1.39 1.42.258-.004.516-.022.772-.053v1.829a6.5 6.5 0 01-1.303.107c-2.313 0-3.215-.86-3.215-3.055v-6.487h-1.661v-1.84h1.661v-2.678h2.356zm3.43 8.338c0-3.561 2.117-5.799 5.418-5.799 3.313 0 5.42 2.238 5.42 5.799 0 3.57-2.096 5.798-5.42 5.798-3.322 0-5.418-2.228-5.418-5.798zm8.448 0c0-2.443-1.13-3.885-3.03-3.885s-3.03 1.453-3.03 3.885c0 2.452 1.13 3.883 3.03 3.883s3.03-1.431 3.03-3.883zm4.323-5.66h2.237v1.927h.054a2.7 2.7 0 011.008-1.506 2.741 2.741 0 011.74-.54c.27 0 .54.029.804.087v2.173a3.31 3.31 0 00-1.054-.14 2.36 2.36 0 00-2.34 1.607 2.325 2.325 0 00-.104.997v6.712h-2.345V25.994zm16.655 7.993c-.316 2.055-2.335 3.465-4.919 3.465-3.324 0-5.387-2.206-5.387-5.745 0-3.55 2.074-5.852 5.288-5.852 3.161 0 5.148 2.151 5.148 5.582v.796h-8.069v.14a2.926 2.926 0 00.807 2.29 3 3 0 002.267.916 2.602 2.602 0 001.585-.362 2.564 2.564 0 001.053-1.23h2.227zm-7.927-3.377h5.711a2.7 2.7 0 00-.767-2.043 2.76 2.76 0 00-2.035-.83 2.919 2.919 0 00-2.059.836 2.84 2.84 0 00-.85 2.037z" fill="#000"/></svg>