<svg width="12" height="20" viewBox="0 0 12 20" fill="none" xmlns="http://www.w3.org/2000/svg">
<path d="M11.0529 5.05166V14.2361H10.0422L10.0421 5.05166C10.0421 2.8235 8.22937 1.01074 5.99981 1.01074C3.77045 1.01074 1.95787 2.8236 1.95787 5.05166L1.95974 15.1581C1.95974 16.8338 3.31348 18.1895 4.98933 18.1895C6.66504 18.1895 8.0208 16.8336 8.0208 15.1581L8.02093 8.08423C8.02093 6.96566 7.12591 6.05534 6.00692 6.05534C4.88877 6.05534 3.97886 6.96566 3.97886 8.08423V14.2361H2.96836L2.96822 8.08423C2.96822 6.4081 4.33108 5.04473 6.00665 5.04473C7.68315 5.04473 9.0313 6.40814 9.0313 8.08423V15.1581C9.0313 17.3902 7.22153 19.2003 4.98936 19.2003C2.7572 19.2003 0.949141 17.3903 0.949141 15.1581L0.947266 5.05166C0.947533 2.26635 3.21399 0 5.99994 0C8.78589 0 11.0526 2.26635 11.0526 5.05166H11.0529Z" fill="#555555"/>
</svg>
