<svg width="24" height="24" fill="none" xmlns="http://www.w3.org/2000/svg"><path d="M18.683 3h-8.637a1.85 1.85 0 00-1.728 1.957v4.02a.432.432 0 00.864 0v-4.02a.997.997 0 01.864-1.093h8.637a.998.998 0 01.864 1.093v14.087a.998.998 0 01-.864 1.092h-8.637a.998.998 0 01-.864-1.092v-4.021a.432.432 0 00-.864 0v4.02A1.85 1.85 0 0010.046 21h8.637a1.849 1.849 0 001.727-1.956V4.956A1.85 1.85 0 0018.683 3z" fill="#555"/><path d="M11.467 15.58a.431.431 0 000 .613.432.432 0 00.613 0l3.887-3.886a.432.432 0 000-.613L12.08 7.807a.433.433 0 10-.613.613l3.152 3.148H4.432a.432.432 0 100 .864h10.187l-3.152 3.148z" fill="#555"/></svg>