<svg width="168" height="50" fill="none" xmlns="http://www.w3.org/2000/svg"><path d="M161.778 0H6.222C2.786 0 0 2.798 0 6.25v37.5C0 47.202 2.786 50 6.222 50h155.556c3.436 0 6.222-2.798 6.222-6.25V6.25c0-3.452-2.786-6.25-6.222-6.25z" fill="#fff"/><path d="M161.778 1c1.386 0 2.715.553 3.696 1.538a5.26 5.26 0 011.53 3.712v37.5a5.26 5.26 0 01-1.53 3.712A5.217 5.217 0 01161.778 49H6.222a5.215 5.215 0 01-3.696-1.538 5.262 5.262 0 01-1.53-3.712V6.25a5.26 5.26 0 011.53-3.712A5.215 5.215 0 016.222 1h155.556zm0-1H6.222a6.21 6.21 0 00-4.4 1.83A6.264 6.264 0 000 6.25v37.5a6.27 6.27 0 001.822 4.42 6.208 6.208 0 004.4 1.83h155.556a6.21 6.21 0 004.4-1.83A6.267 6.267 0 00168 43.75V6.25a6.268 6.268 0 00-1.822-4.42 6.21 6.21 0 00-4.4-1.83z" fill="#000"/><path d="M59.011 12.8a3.415 3.415 0 01-.933 2.5 3.608 3.608 0 01-2.738 1.1 3.719 3.719 0 01-2.75-1.125 3.997 3.997 0 010-5.575 3.927 3.927 0 014.281-.813c.449.186.849.472 1.17.838l-.66.662a2.49 2.49 0 00-2.04-.9 2.977 2.977 0 00-2.464 1.334 3.009 3.009 0 00.567 3.967 2.98 2.98 0 002.737.584 2.97 2.97 0 001.25-.722c.38-.419.6-.959.622-1.525H55.34v-.9h3.622c.028.19.045.383.05.575zm5.7-3.125h-3.36v2.375h3.061v.9h-3.061v2.375h3.36v.925h-4.33v-7.5h4.33v.925zm4.082 6.575h-.958V9.675h-2.091V8.75h5.19v.925h-2.141v6.575zm5.799 0v-7.5h.958v7.5h-.958zm5.214 0h-.958V9.675h-2.09V8.75h5.126v.925h-2.078v6.575zm11.798-.975a3.868 3.868 0 01-2.738 1.14 3.855 3.855 0 01-2.738-1.14 4.06 4.06 0 010-5.55 3.644 3.644 0 012.738-1.137 3.72 3.72 0 012.738 1.137 3.84 3.84 0 011.095 2.775 3.765 3.765 0 01-1.095 2.775zm-4.766-.625a2.849 2.849 0 002.028.852 2.837 2.837 0 002.028-.852 3.183 3.183 0 000-4.3 2.848 2.848 0 00-2.028-.852 2.839 2.839 0 00-2.028.852 3.183 3.183 0 000 4.3zm7.217 1.6v-7.5h1.157l3.634 5.838V8.75h.959v7.5h-.996l-3.796-6.113v6.113h-.958z" fill="#000" stroke="#000" stroke-width=".411" stroke-miterlimit="10"/><path d="M84.796 27.188a5.284 5.284 0 00-2.943.904 5.32 5.32 0 00-1.947 2.394 5.346 5.346 0 001.163 5.8 5.279 5.279 0 005.78 1.14 5.306 5.306 0 002.375-1.965c.58-.878.889-1.908.886-2.961a5.256 5.256 0 00-1.535-3.788 5.212 5.212 0 00-3.779-1.524zm0 8.537a3.2 3.2 0 01-1.84-.43 3.22 3.22 0 01-1.28-1.397 3.238 3.238 0 01.546-3.587 3.206 3.206 0 013.522-.806 3.23 3.23 0 012.039 2.995 3.086 3.086 0 01-.816 2.245 3.06 3.06 0 01-2.17.98zm-11.598-8.538a5.284 5.284 0 00-2.943.905 5.32 5.32 0 00-1.947 2.394 5.347 5.347 0 001.163 5.8 5.279 5.279 0 005.78 1.14 5.306 5.306 0 002.374-1.965c.58-.878.89-1.908.887-2.961a5.26 5.26 0 00-1.535-3.788 5.213 5.213 0 00-3.779-1.524zm0 8.538a3.2 3.2 0 01-1.84-.43 3.22 3.22 0 01-1.28-1.397 3.238 3.238 0 01.545-3.587 3.207 3.207 0 013.522-.806 3.222 3.222 0 012.04 2.995 3.09 3.09 0 01-.816 2.245 3.06 3.06 0 01-2.17.98zm-13.788-6.9v2.25h5.376a4.723 4.723 0 01-1.245 2.838 5.497 5.497 0 01-4.156 1.65 5.96 5.96 0 01-4.224-1.758 6.014 6.014 0 01-1.75-4.242c0-1.592.63-3.118 1.75-4.243a5.96 5.96 0 014.224-1.758 5.76 5.76 0 014.082 1.613l1.58-1.588a7.836 7.836 0 00-5.637-2.274 8.195 8.195 0 00-6.022 2.3 8.266 8.266 0 00-2.524 5.956 8.294 8.294 0 002.524 5.955 8.22 8.22 0 006.022 2.301 7.525 7.525 0 005.737-2.313 7.52 7.52 0 001.94-5.287 7.865 7.865 0 00-.111-1.4H59.41zm56.385 1.75a4.994 4.994 0 00-1.74-2.401 4.964 4.964 0 00-2.789-.986 4.96 4.96 0 00-3.635 1.573 5.01 5.01 0 00-1.343 3.739 5.298 5.298 0 001.018 3.175 5.268 5.268 0 002.708 1.931 5.242 5.242 0 003.32-.081 5.27 5.27 0 002.611-2.063l-1.805-1.25a2.994 2.994 0 01-2.601 1.462 2.667 2.667 0 01-1.53-.407 2.684 2.684 0 01-1.033-1.205l7.081-2.937-.262-.55zm-7.217 1.775a2.931 2.931 0 011.658-2.834c.35-.166.73-.261 1.117-.278a2.035 2.035 0 011.954 1.137l-4.729 1.975zm-5.75 5.15h2.327V21.875h-2.327V37.5zm-3.808-9.125h-.087a3.66 3.66 0 00-2.787-1.25 5.291 5.291 0 00-3.582 1.646 5.338 5.338 0 000 7.346c.94.99 2.222 1.58 3.582 1.646a3.57 3.57 0 002.787-1.25h.087v.762c0 2.038-1.082 3.125-2.825 3.125a2.928 2.928 0 01-1.623-.535 2.948 2.948 0 01-1.052-1.352l-2.016.837a4.995 4.995 0 001.858 2.307 4.962 4.962 0 002.834.843c2.725 0 4.977-1.612 4.977-5.538V27.5H99.02v.875zm-2.675 7.35a3.205 3.205 0 01-2.14-1.01 3.233 3.233 0 010-4.417 3.205 3.205 0 012.14-1.01 2.965 2.965 0 012.096 1.002 2.992 2.992 0 01.741 2.21 2.988 2.988 0 01-.732 2.222 2.964 2.964 0 01-2.105 1.003zm30.352-13.85h-5.575V37.5h2.327v-5.925h3.248a4.818 4.818 0 003.645-1.29 4.871 4.871 0 00-1.689-8.145 4.818 4.818 0 00-1.956-.265zm0 7.5h-3.248V24.05h3.298a2.655 2.655 0 012.46 1.651 2.683 2.683 0 01-1.441 3.495c-.323.135-.67.204-1.019.204l-.05-.025zm14.361-2.238a4.347 4.347 0 00-4.144 2.387l2.053.863a2.21 2.21 0 012.128-1.137 2.233 2.233 0 012.23 1.164c.141.263.23.551.259.848v.15a5.182 5.182 0 00-2.427-.6c-2.215 0-4.48 1.25-4.48 3.525a3.626 3.626 0 001.211 2.542 3.589 3.589 0 002.659.896 3.289 3.289 0 002.962-1.525h.075v1.25h2.24v-6.012c0-2.738-2.066-4.325-4.717-4.325l-.049-.026zm-.287 8.563c-.759 0-1.816-.388-1.816-1.325 0-1.25 1.319-1.675 2.488-1.675a4.12 4.12 0 012.116.525 2.83 2.83 0 01-.902 1.766c-.503.46-1.156.72-1.836.734l-.05-.025zm13.216-8.2l-2.663 6.775h-.074l-2.763-6.775h-2.489l4.144 9.475-2.364 5.262h2.426l6.372-14.737h-2.589zm-20.906 10h2.314V21.875h-2.314V37.5z" fill="#000"/><path d="M12.992 9.425a2.507 2.507 0 00-.585 1.75v27.65a2.431 2.431 0 00.585 1.75l.087.1 15.419-15.487v-.375L13.079 9.338l-.087.087z" fill="url(#paint0_linear_11_515)"/><path d="M33.6 30.35l-5.102-5.163v-.375L33.6 19.65l.112.075 6.11 3.475c1.742.988 1.742 2.613 0 3.613l-6.085 3.475-.137.062z" fill="url(#paint1_linear_11_515)"/><path d="M33.75 30.275L28.497 25 12.992 40.575a2.011 2.011 0 002.576.087L33.75 30.276z" fill="url(#paint2_linear_11_515)"/><path d="M33.75 19.725L15.567 9.35a1.998 1.998 0 00-2.576.075L28.498 25l5.251-5.275z" fill="url(#paint3_linear_11_515)"/><path opacity=".2" d="M33.6 30.163L15.568 40.474a2.06 2.06 0 01-2.489 0l-.087.087.087.1a2.06 2.06 0 002.49 0l18.18-10.387-.149-.112z" fill="#000"/><path opacity=".12" d="M12.992 40.4a2.507 2.507 0 01-.548-1.762v.187a2.432 2.432 0 00.585 1.75l.087-.088-.124-.087zm26.83-13.775L33.6 30.163l.112.112 6.11-3.475a2.179 2.179 0 001.32-1.8 2.33 2.33 0 01-1.32 1.625z" fill="#000"/><path opacity=".25" d="M15.568 9.525l24.254 13.85A2.315 2.315 0 0141.142 25a2.192 2.192 0 00-1.32-1.8L15.568 9.35c-1.73-1-3.16-.175-3.16 1.825v.188c.037-2 1.43-2.825 3.16-1.838z" fill="#fff"/><defs><linearGradient id="paint0_linear_11_515" x1="27.129" y1="10.887" x2="6.154" y2="31.769" gradientUnits="userSpaceOnUse"><stop stop-color="#00A0FF"/><stop offset=".01" stop-color="#00A1FF"/><stop offset=".26" stop-color="#00BEFF"/><stop offset=".51" stop-color="#00D2FF"/><stop offset=".76" stop-color="#00DFFF"/><stop offset="1" stop-color="#00E3FF"/></linearGradient><linearGradient id="paint1_linear_11_515" x1="42.1" y1="25" x2="11.996" y2="25" gradientUnits="userSpaceOnUse"><stop stop-color="#FFE000"/><stop offset=".41" stop-color="#FFBD00"/><stop offset=".78" stop-color="orange"/><stop offset="1" stop-color="#FF9C00"/></linearGradient><linearGradient id="paint2_linear_11_515" x1="30.9" y1="27.875" x2="2.45" y2="56.186" gradientUnits="userSpaceOnUse"><stop stop-color="#FF3A44"/><stop offset="1" stop-color="#C31162"/></linearGradient><linearGradient id="paint3_linear_11_515" x1="9.085" y1=".225" x2="21.785" y2="12.868" gradientUnits="userSpaceOnUse"><stop stop-color="#32A071"/><stop offset=".07" stop-color="#2DA771"/><stop offset=".48" stop-color="#15CF74"/><stop offset=".8" stop-color="#06E775"/><stop offset="1" stop-color="#00F076"/></linearGradient></defs></svg>