<svg width="9.999999999999998" height="11" xmlns="http://www.w3.org/2000/svg">

 <g>
  <title>background</title>
  <rect fill="none" id="canvas_background" height="402" width="582" y="-1" x="-1"/>
 </g>
 <g>
  <title>Layer 1</title>
  <path id="svg_1" fill="#e53429" d="m9.12304,10.5936c0.24923,-0.0712 0.46811,-0.2223 0.62299,-0.4302c0.15489,-0.20783 0.23711,-0.46076 0.23407,-0.71995l-0.0137,-1.02418c-0.00257,-0.1698 -0.05365,-0.33527 -0.14728,-0.47694c-0.09362,-0.14168 -0.22588,-0.25361 -0.38107,-0.32251l-1.77136,-0.78306c-0.16536,-0.07272 -0.34903,-0.09332 -0.52641,-0.05911c-0.1774,0.03413 -0.34022,0.12157 -0.46683,0.25047l-0.93117,0.95436c-0.0511,0.0533 -0.12854,0.07182 -0.19819,0.0476c-0.63322,-0.23574 -1.21022,-0.60093 -1.69433,-1.0721c-0.48412,-0.47128 -0.86465,-1.03832 -1.11735,-1.66484c-0.02609,-0.06908 -0.00957,-0.14694 0.0422,-0.1995l0.92927,-0.95615c0.12545,-0.13005 0.20847,-0.29507 0.23793,-0.47336c0.02948,-0.1782 0.00406,-0.36121 -0.07297,-0.52464l-0.82957,-1.74935c-0.07288,-0.15328 -0.18823,-0.28252 -0.33215,-0.37233c-0.14403,-0.08987 -0.31077,-0.13659 -0.48054,-0.13458l-1.00848,0.01345c-0.32817,0.00452 -0.63965,0.14571 -0.8593,0.38966c-0.21968,0.24386 -0.32764,0.56835 -0.298,0.89517c0.15778,1.76708 0.72875,4.2475 2.55326,6.02907l0.01627,0.01591c1.68226,1.63262 3.45958,2.33121 6.13432,2.41091c0.12102,0.0038 0.24191,-0.011 0.35839,-0.0437l0,-0.0001zm-6.17165,-2.69794l-0.01536,-0.01496c-1.72366,-1.68303 -2.26533,-4.05047 -2.41614,-5.74026l-0.00002,-0.00009c-0.01836,-0.19911 0.04727,-0.3968 0.18099,-0.54549c0.13375,-0.14863 0.32347,-0.23476 0.52343,-0.23759l1.00857,-0.01348l-0.00008,0.00003c0.0815,-0.00084 0.16158,0.02155 0.23065,0.06476c0.06916,0.0432 0.12443,0.10524 0.15941,0.17886l0.82957,1.74935l0.00009,-0.00003c0.03699,0.07844 0.0492,0.16638 0.03515,0.25198c-0.01414,0.08564 -0.05402,0.1649 -0.11422,0.22736l-0.92933,0.95625l-0.00006,0.00011c-0.08689,0.0892 -0.14631,0.20144 -0.17125,0.32343c-0.02502,0.12202 -0.01442,0.24863 0.03045,0.36484c0.27666,0.68775 0.69388,1.31012 1.22506,1.82721c0.53121,0.51708 1.16453,0.91748 1.85953,1.17549c0.11727,0.04176 0.2441,0.049 0.36547,0.02077c0.12127,-0.02821 0.23194,-0.09072 0.31872,-0.17998l0.93124,-0.95447c0.06083,-0.0619 0.13907,-0.10384 0.22426,-0.12019c0.08519,-0.01635 0.17336,-0.00636 0.25281,0.02854l1.77136,0.78306c0.07458,0.03312 0.13818,0.08688 0.18311,0.15501c0.04502,0.06809 0.06961,0.14762 0.07086,0.22928l0.01368,1.02409l-0.00009,0.00002c0.00235,0.19593 -0.07538,0.38431 -0.21531,0.5216c-0.13984,0.13724 -0.32969,0.21144 -0.52557,0.20534c-2.1531,-0.0642 -3.96814,-0.47649 -5.82707,-2.28079l0.00009,-0.00005z"/>
 </g>
</svg>