<svg width="14" height="14" viewBox="0 0 14 14" fill="none" xmlns="http://www.w3.org/2000/svg">
<path d="M6.99998 0.0285645C3.16226 0.0285645 0.039978 3.15085 0.039978 6.98856C0.039978 10.8263 3.16226 13.9486 6.99998 13.9486C10.8377 13.9486 13.96 10.8263 13.96 6.98856C13.96 3.15085 10.8377 0.0285645 6.99998 0.0285645ZM6.99998 13.4686C3.42684 13.4686 0.519978 10.5617 0.519978 6.98856C0.519978 3.41542 3.42684 0.508564 6.99998 0.508564C10.5731 0.508564 13.48 3.41542 13.48 6.98856C13.48 10.5617 10.5731 13.4686 6.99998 13.4686ZM6.99998 1.76199C6.8675 1.76199 6.76002 1.86936 6.76002 2.00195V6.7488H3.08002C2.94755 6.7488 2.84007 6.85617 2.84007 6.98875C2.84007 7.12134 2.94755 7.22871 3.08002 7.22871H7.00002C7.1325 7.22871 7.23998 7.12134 7.23998 6.98875V2.0019C7.23998 1.86942 7.1325 1.76195 7.00002 1.76195L6.99998 1.76199Z" fill="#E53429"/>
</svg>
